# xmcd CD database file
#
# Track frame offsets:
#	150
#	22507
#	44940
#	66152
#	84792
#	108535
#	133315
#	156745
#	177947
#	199560
#
# Disc length: 2985 seconds
#
# Revision: 0
# Processed by: cddbd v1.5.2PL0 Copyright (c) Steve Scherf et al.
# Submitted via: CDex 1.51
#
DISCID=880ba70a
DTITLE=India - The Best Of India
DYEAR=2005
DGENRE=Salsa
TTITLE0=Nunca Voy A Olvidarte
TTITLE1=Sola
TTITLE2=Dicen Que Soy
TTITLE3=Fever
TTITLE4=Sobre El Fuego
TTITLE5=Jazzin'
TTITLE6=Me Canse De Ser La Otra
TTITLE7=Hielo
TTITLE8=O Ella O Yo
TTITLE9=La Voz De Experiencia
EXTD=YEAR: 2005
EXTT0=
EXTT1=
EXTT2=
EXTT3=
EXTT4=
EXTT5=
EXTT6=
EXTT7=
EXTT8=
EXTT9=
PLAYORDER=
